<svg xmlns="http://www.w3.org/2000/svg" xmlns:xlink="http://www.w3.org/1999/xlink" version="1.1" width="600" height="200" viewBox="0 0 600 200" xml:space="preserve">
<desc>Created with Fabric.js 3.5.0</desc>
<defs>
</defs>
<rect x="0" y="0" width="100%" height="100%" fill="rgba(255,255,255,0)"/>
<g transform="matrix(-3.1713 0.6419 -0.1673 -0.8264 252.6066 83.9955)" id="559137">
<path style="stroke: none; stroke-width: 1; stroke-dasharray: none; stroke-linecap: butt; stroke-dashoffset: 0; stroke-linejoin: miter; stroke-miterlimit: 4; is-custom-font: none; font-file-url: none; fill: rgb(255,0,0); fill-rule: nonzero; opacity: 0.75;" vector-effect="non-scaling-stroke" transform=" translate(-118.0002, -91.9999)" d="M 235.952 123.403 C 234.124 155.989 210.247 180.907 164.022 167.975 C 117.797 155.044 97.7365 162.022 80.2752 172.349 C 62.8139 182.675 40.0871 190.828 18.8628 175.561 C -2.36151 160.295 -4.64908 132.528 6.88351 115.763 C 20.3111 96.2176 45.894 92.789 64.5194 91.4526 C 82.9417 90.1163 100.2 83.9745 104.721 44.8695 C 109.228 5.75106 145.735 -6.34353 166.377 2.99738 C 192.447 14.7815 184.055 39.4162 190.268 53.7785 C 196.494 68.1408 205.807 76.1184 215.269 82.8676 C 228.52 92.3165 236.71 109.77 235.952 123.403 Z" stroke-linecap="round"/>
</g>
<g transform="matrix(-3.1395 0.5026 -0.131 -0.8182 244.7258 72.3976)" id="270018">
<path style="stroke: none; stroke-width: 1; stroke-dasharray: none; stroke-linecap: butt; stroke-dashoffset: 0; stroke-linejoin: miter; stroke-miterlimit: 4; is-custom-font: none; font-file-url: none; fill: rgb(255,255,255); fill-rule: nonzero; opacity: 0.75;" vector-effect="non-scaling-stroke" transform=" translate(-118.0002, -91.9999)" d="M 235.952 123.403 C 234.124 155.989 210.247 180.907 164.022 167.975 C 117.797 155.044 97.7365 162.022 80.2752 172.349 C 62.8139 182.675 40.0871 190.828 18.8628 175.561 C -2.36151 160.295 -4.64908 132.528 6.88351 115.763 C 20.3111 96.2176 45.894 92.789 64.5194 91.4526 C 82.9417 90.1163 100.2 83.9745 104.721 44.8695 C 109.228 5.75106 145.735 -6.34353 166.377 2.99738 C 192.447 14.7815 184.055 39.4162 190.268 53.7785 C 196.494 68.1408 205.807 76.1184 215.269 82.8676 C 228.52 92.3165 236.71 109.77 235.952 123.403 Z" stroke-linecap="round"/>
</g>
<g transform="matrix(-3.2271 0.2347 -0.0612 -0.841 231.5215 50.8609)" id="950241">
<path style="stroke: none; stroke-width: 1; stroke-dasharray: none; stroke-linecap: butt; stroke-dashoffset: 0; stroke-linejoin: miter; stroke-miterlimit: 4; is-custom-font: none; font-file-url: none; fill: rgb(255,0,0); fill-rule: nonzero; opacity: 0.75;" vector-effect="non-scaling-stroke" transform=" translate(-118.0002, -91.9999)" d="M 235.952 123.403 C 234.124 155.989 210.247 180.907 164.022 167.975 C 117.797 155.044 97.7365 162.022 80.2752 172.349 C 62.8139 182.675 40.0871 190.828 18.8628 175.561 C -2.36151 160.295 -4.64908 132.528 6.88351 115.763 C 20.3111 96.2176 45.894 92.789 64.5194 91.4526 C 82.9417 90.1163 100.2 83.9745 104.721 44.8695 C 109.228 5.75106 145.735 -6.34353 166.377 2.99738 C 192.447 14.7815 184.055 39.4162 190.268 53.7785 C 196.494 68.1408 205.807 76.1184 215.269 82.8676 C 228.52 92.3165 236.71 109.77 235.952 123.403 Z" stroke-linecap="round"/>
</g>
</svg>